<svg xmlns="http://www.w3.org/2000/svg" viewBox="0 0 1000 1058" width="1000" height="1058">
  <!-- Clean background -->
  <rect width="1000" height="1058" fill="#ffffff" />

  <!-- GRID BACKGROUND -->
  <defs>
    <pattern id="grid" width="20" height="20" patternUnits="userSpaceOnUse">
      <path d="M 20 0 L 0 0 0 20" fill="none" stroke="#f1f5f9" stroke-width="1" />
    </pattern>
  </defs>
  <rect width="1000" height="1058" fill="url(#grid)" />

  <!-- ========================================================== -->
  <!-- LEFT BLOCK B1 (u: 0 -> 276.1, v: 99.3 -> 1058.0) -->
  <!-- ========================================================== -->

  <!-- Colored Rooms of Block B1 (Typical Floor 4 Plan) -->
  <!-- Room 401 -->
  <rect x="10" y="109.3" width="215" height="110.7" fill="#cce4f0" opacity="0.9" stroke="#1e293b" stroke-width="2" />
  <!-- Corridor column -->
  <rect x="225" y="109.3" width="41.1" height="110.7" fill="#cce4f0" opacity="0.9" stroke="#1e293b" stroke-width="2" />
  <!-- Room 402 -->
  <rect x="10" y="220" width="215" height="50" fill="#cce4f0" opacity="0.9" stroke="#1e293b" stroke-width="2" />
  <!-- Lab Auditorium 403 -->
  <rect x="10" y="270" width="215" height="180" fill="#cce4f0" opacity="0.9" stroke="#1e293b" stroke-width="2" />
  <!-- Storage and utilities -->
  <rect x="225" y="270" width="41.1" height="50" fill="#fad7b1" opacity="0.9" stroke="#1e293b" stroke-width="2" />
  <rect x="225" y="320" width="20.5" height="30" fill="#fad7b1" opacity="0.9" stroke="#1e293b" stroke-width="2" />
  <rect x="245.5" y="320" width="20.6" height="30" fill="#fad7b1" opacity="0.9" stroke="#1e293b" stroke-width="2" />
  <!-- Room 404 -->
  <rect x="225" y="350" width="41.1" height="50" fill="#cce4f0" opacity="0.9" stroke="#1e293b" stroke-width="2" />
  
  <!-- Room 405 -->
  <rect x="10" y="450" width="215" height="60" fill="#cce4f0" opacity="0.9" stroke="#1e293b" stroke-width="2" />
  <!-- Room 406 -->
  <rect x="10" y="510" width="215" height="60" fill="#cce4f0" opacity="0.9" stroke="#1e293b" stroke-width="2" />
  <!-- West Stairs -->
  <rect x="10" y="570" width="215" height="110" fill="#fad7b1" opacity="0.9" stroke="#1e293b" stroke-width="2" />
  <!-- Stairs Steps -->
  <g stroke="#475569" stroke-width="1.5">
    <line x1="10" y1="580" x2="117" y2="580" />
    <line x1="10" y1="590" x2="117" y2="590" />
    <line x1="10" y1="600" x2="117" y2="600" />
    <line x1="10" y1="610" x2="117" y2="610" />
    <line x1="10" y1="620" x2="117" y2="620" />
    <line x1="10" y1="630" x2="117" y2="630" />
    <line x1="10" y1="640" x2="117" y2="640" />
    <line x1="10" y1="650" x2="117" y2="650" />
    <line x1="10" y1="660" x2="117" y2="660" />
    
    <line x1="117" y1="570" x2="117" y2="670" stroke-width="2" stroke="#1e293b" />

    <line x1="117" y1="580" x2="225" y2="580" />
    <line x1="117" y1="590" x2="225" y2="590" />
    <line x1="117" y1="600" x2="225" y2="600" />
    <line x1="117" y1="610" x2="225" y2="610" />
    <line x1="117" y1="620" x2="225" y2="620" />
    <line x1="117" y1="630" x2="225" y2="630" />
    <line x1="117" y1="640" x2="225" y2="640" />
    <line x1="117" y1="650" x2="225" y2="650" />
    <line x1="117" y1="660" x2="225" y2="660" />
  </g>

  <!-- Open Void space in Left Wing -->
  <rect x="10" y="680" width="215" height="150" fill="#f8fafc" stroke="#94a3b8" stroke-dasharray="8 6" stroke-width="2" />
  <rect x="10" y="830" width="215" height="218" fill="#f8fafc" stroke="#94a3b8" stroke-dasharray="8 6" stroke-width="2" />

  <!-- ========================================================== -->
  <!-- CENTER BLOCK B (u: 276.1 -> 774.0, v: 207.6 -> 629.9) -->
  <!-- ========================================================== -->

  <!-- Top corridor connectors -->
  <rect x="286.1" y="217.6" width="193.9" height="120" fill="#cce4f0" opacity="0.9" stroke="#1e293b" stroke-width="2" />
  <rect x="544" y="217.6" width="220" height="120" fill="#cce4f0" opacity="0.9" stroke="#1e293b" stroke-width="2" />

  <!-- ВТОРОЙ СВЕТ ATRIUM STENCIL -->
  <rect x="286.1" y="400" width="477.9" height="210" fill="#f8fafc" stroke="#94a3b8" stroke-dasharray="8 6" stroke-width="2.5" />
  <text x="525" y="515" fill="#64748b" font-family="'Inter', system-ui, sans-serif" font-weight="bold" font-size="28" text-anchor="middle" letter-spacing="3">ВТОРОЙ СВЕТ</text>

  <!-- Stairs line drawings -->
  <g stroke="#475569" stroke-width="1.5">
    <line x1="286.1" y1="350" x2="350" y2="350" />
    <line x1="286.1" y1="360" x2="350" y2="360" />
    <line x1="286.1" y1="370" x2="350" y2="370" />
    <line x1="710" y1="350" x2="774" y2="350" />
    <line x1="710" y1="360" x2="774" y2="360" />
    <line x1="710" y1="370" x2="774" y2="370" />
  </g>

  <!-- ========================================================== -->
  <!-- RIGHT BLOCK B2 (u: 774.0 -> 1000.0, v: 0 -> 732.8) -->
  <!-- ========================================================== -->

  <!-- Rooms at top-right of B2 -->
  <rect x="784" y="10" width="70" height="90" fill="#ffffff" stroke="#1e293b" stroke-width="2" />
  <rect x="854" y="10" width="70" height="90" fill="#ffffff" stroke="#1e293b" stroke-width="2" />
  <rect x="924" y="10" width="66" height="90" fill="#ffffff" stroke="#1e293b" stroke-width="2" />
  
  <rect x="784" y="100" width="70" height="80" fill="#ffffff" stroke="#1e293b" stroke-width="2" />
  <rect x="854" y="100" width="136" height="80" fill="#ffffff" stroke="#1e293b" stroke-width="2" />
  
  <rect x="784" y="180" width="70" height="80" fill="#ffffff" stroke="#1e293b" stroke-width="2" />
  <!-- Stairs East Top -->
  <rect x="854" y="180" width="136" height="110" fill="#ffffff" stroke="#1e293b" stroke-width="2" />
  <line x1="880" y1="190" x2="980" y2="190" stroke="#475569" stroke-width="1.5" />
  <line x1="880" y1="200" x2="980" y2="200" stroke="#475569" stroke-width="1.5" />
  
  <!-- Classrooms 412-414 in B2 -->
  <rect x="784" y="525" width="206" height="200" fill="#fad7b1" opacity="0.9" stroke="#1e293b" stroke-width="2.5" />

  <!-- Annotation 'Floor 4' watermark -->
  <text x="500" y="80" fill="#cbd5e1" font-family="'Inter', system-ui, sans-serif" font-weight="900" font-size="42" text-anchor="middle" letter-spacing="4">ЭТАЖ 4</text>

  <!-- ========================================================== -->
  <!-- TEXT RENDERING & LABELS -->
  <!-- ========================================================== -->
  <g font-family="'Inter', system-ui, sans-serif" font-weight="bold" fill="#0f172a" text-anchor="middle">
    <!-- Left B1 Labels -->
    <text x="117" y="165" font-size="28">401</text>
    <text x="245" y="165" font-size="18">402</text>
    <text x="117" y="248" font-size="18">403</text>
    <text x="117" y="365" font-size="22">Лаборатория</text>
    <text x="245" y="380" font-size="14">404</text>
    <text x="117" y="488" font-size="18">405</text>
    <text x="117" y="548" font-size="18">406</text>
    <text x="117" y="760" font-size="22" fill="#64748b">Второй Свет (B1)</text>

    <!-- Center B Labels -->
    <text x="383" y="285" font-size="28">Кабинет 407</text>
    <text x="654" y="285" font-size="28">Кабинет 408</text>

    <!-- Right B2 Labels -->
    <text x="887" y="635" font-size="28" font-weight="900" fill="#451a03" letter-spacing="2">Кабинет 412</text>
  </g>

  <!-- Compass Marker -->
  <g transform="translate(945, 995)">
    <circle cx="0" cy="0" r="30" fill="none" stroke="#64748b" stroke-width="2" />
    <line x1="0" y1="25" x2="0" y2="-25" stroke="#64748b" stroke-width="2" />
    <line x1="-25" y1="0" x2="25" y2="0" stroke="#64748b" stroke-width="2" />
    <polygon points="0,-25 -8,-5 8,-5" fill="#ef4444" />
    <polygon points="0,25 -8,5 8,5" fill="#64748b" />
    <text x="0" y="-32" font-family="monospace" font-weight="bold" font-size="14" fill="#ef4444" text-anchor="middle">N</text>
  </g>
</svg>
